<mxfile modified="2019-11-21T09:17:15.177Z" host="www.draw.io" agent="Mozilla/5.0 (Macintosh; Intel Mac OS X 10.14; rv:70.0) Gecko/20100101 Firefox/70.0" etag="ooQSBinB7U3Z32xOBWeP" version="12.2.7" type="github" pages="1">
  <diagram name="Page-1" id="42789a77-a242-8287-6e28-9cd8cfd52e62">
    <mxGraphModel dx="932" dy="614" grid="1" gridSize="10" guides="1" tooltips="1" connect="1" arrows="1" fold="1" page="1" pageScale="1" pageWidth="1100" pageHeight="850" background="#ffffff" math="0" shadow="0">
      <root>
        <mxCell id="0"/>
        <mxCell id="1" parent="0"/>
        <mxCell id="U_3eeoUp6OMtoiEWqaUz-1" value="Janik von Rotz" style="ellipse;whiteSpace=wrap;html=1;" parent="1" vertex="1">
          <mxGeometry x="450" y="250" width="120" height="80" as="geometry"/>
        </mxCell>
        <mxCell id="U_3eeoUp6OMtoiEWqaUz-2" value="&lt;div&gt;Abilium&lt;/div&gt;&lt;div&gt;GmbH&lt;/div&gt;&lt;div&gt;Severin Zumbrunn&lt;br&gt;Jakob Sch채rer&lt;br&gt;&lt;/div&gt;" style="ellipse;whiteSpace=wrap;html=1;" parent="1" vertex="1">
          <mxGeometry x="240" y="170" width="120" height="80" as="geometry"/>
        </mxCell>
        <mxCell id="U_3eeoUp6OMtoiEWqaUz-3" value="" style="endArrow=none;html=1;entryX=0;entryY=0;entryDx=0;entryDy=0;exitX=1;exitY=0.5;exitDx=0;exitDy=0;" parent="1" source="U_3eeoUp6OMtoiEWqaUz-2" target="U_3eeoUp6OMtoiEWqaUz-1" edge="1">
          <mxGeometry width="50" height="50" relative="1" as="geometry">
            <mxPoint x="240" y="420" as="sourcePoint"/>
            <mxPoint x="290" y="370" as="targetPoint"/>
          </mxGeometry>
        </mxCell>
        <mxCell id="U_3eeoUp6OMtoiEWqaUz-4" style="edgeStyle=orthogonalEdgeStyle;rounded=0;orthogonalLoop=1;jettySize=auto;html=1;exitX=0.5;exitY=1;exitDx=0;exitDy=0;" parent="1" source="U_3eeoUp6OMtoiEWqaUz-2" target="U_3eeoUp6OMtoiEWqaUz-2" edge="1">
          <mxGeometry relative="1" as="geometry"/>
        </mxCell>
        <mxCell id="U_3eeoUp6OMtoiEWqaUz-5" value="Headware&lt;br&gt;GmbH&lt;br&gt;Markus Br채ndli&lt;br&gt;Remo Amstalden" style="ellipse;whiteSpace=wrap;html=1;" parent="1" vertex="1">
          <mxGeometry x="250" y="290" width="120" height="80" as="geometry"/>
        </mxCell>
        <mxCell id="U_3eeoUp6OMtoiEWqaUz-8" value="Dynasoft AG" style="ellipse;whiteSpace=wrap;html=1;" parent="1" vertex="1">
          <mxGeometry x="60" y="320" width="120" height="80" as="geometry"/>
        </mxCell>
        <mxCell id="U_3eeoUp6OMtoiEWqaUz-9" value="" style="endArrow=none;html=1;exitX=1;exitY=0.5;exitDx=0;exitDy=0;entryX=0.025;entryY=0.663;entryDx=0;entryDy=0;entryPerimeter=0;" parent="1" source="U_3eeoUp6OMtoiEWqaUz-8" target="U_3eeoUp6OMtoiEWqaUz-5" edge="1">
          <mxGeometry width="50" height="50" relative="1" as="geometry">
            <mxPoint x="150" y="410" as="sourcePoint"/>
            <mxPoint x="200" y="360" as="targetPoint"/>
          </mxGeometry>
        </mxCell>
        <mxCell id="U_3eeoUp6OMtoiEWqaUz-10" value="" style="endArrow=none;html=1;exitX=1;exitY=0.5;exitDx=0;exitDy=0;entryX=0;entryY=0.588;entryDx=0;entryDy=0;entryPerimeter=0;" parent="1" source="U_3eeoUp6OMtoiEWqaUz-5" target="U_3eeoUp6OMtoiEWqaUz-1" edge="1">
          <mxGeometry width="50" height="50" relative="1" as="geometry">
            <mxPoint x="370" y="360" as="sourcePoint"/>
            <mxPoint x="420" y="310" as="targetPoint"/>
          </mxGeometry>
        </mxCell>
        <mxCell id="U_3eeoUp6OMtoiEWqaUz-13" value="CDS UniBe" style="ellipse;whiteSpace=wrap;html=1;" parent="1" vertex="1">
          <mxGeometry x="50" y="160" width="120" height="80" as="geometry"/>
        </mxCell>
        <mxCell id="U_3eeoUp6OMtoiEWqaUz-14" value="" style="endArrow=none;html=1;entryX=1;entryY=0.5;entryDx=0;entryDy=0;exitX=0;exitY=0.5;exitDx=0;exitDy=0;" parent="1" source="U_3eeoUp6OMtoiEWqaUz-2" target="U_3eeoUp6OMtoiEWqaUz-13" edge="1">
          <mxGeometry width="50" height="50" relative="1" as="geometry">
            <mxPoint x="410" y="140" as="sourcePoint"/>
            <mxPoint x="460" y="90" as="targetPoint"/>
          </mxGeometry>
        </mxCell>
        <mxCell id="U_3eeoUp6OMtoiEWqaUz-16" value="" style="endArrow=none;html=1;entryX=1;entryY=1;entryDx=0;entryDy=0;exitX=0;exitY=0;exitDx=0;exitDy=0;" parent="1" source="U_3eeoUp6OMtoiEWqaUz-17" target="U_3eeoUp6OMtoiEWqaUz-1" edge="1">
          <mxGeometry width="50" height="50" relative="1" as="geometry">
            <mxPoint x="600" y="380" as="sourcePoint"/>
            <mxPoint x="650" y="330" as="targetPoint"/>
          </mxGeometry>
        </mxCell>
        <mxCell id="U_3eeoUp6OMtoiEWqaUz-17" value="&lt;div&gt;Permobil AG Schweiz&lt;/div&gt;&lt;div&gt;Erich von Rotz&lt;br&gt;&lt;/div&gt;" style="ellipse;whiteSpace=wrap;html=1;" parent="1" vertex="1">
          <mxGeometry x="730" y="370" width="120" height="80" as="geometry"/>
        </mxCell>
        <mxCell id="U_3eeoUp6OMtoiEWqaUz-18" value="" style="endArrow=none;html=1;exitX=1;exitY=1;exitDx=0;exitDy=0;entryX=0.242;entryY=0.063;entryDx=0;entryDy=0;entryPerimeter=0;" parent="1" source="U_3eeoUp6OMtoiEWqaUz-17" edge="1">
          <mxGeometry width="50" height="50" relative="1" as="geometry">
            <mxPoint x="820" y="470" as="sourcePoint"/>
            <mxPoint x="759.04" y="445.03999999999996" as="targetPoint"/>
          </mxGeometry>
        </mxCell>
        <mxCell id="U_3eeoUp6OMtoiEWqaUz-19" value="&lt;div&gt;Verkehrsbetriebe Luzern AG&lt;/div&gt;&lt;div&gt;Franz Theiler&lt;br&gt;&lt;/div&gt;" style="ellipse;whiteSpace=wrap;html=1;" parent="1" vertex="1">
          <mxGeometry x="680" y="160" width="120" height="80" as="geometry"/>
        </mxCell>
        <mxCell id="U_3eeoUp6OMtoiEWqaUz-21" value="" style="endArrow=none;html=1;exitX=1;exitY=0;exitDx=0;exitDy=0;entryX=0.017;entryY=0.6;entryDx=0;entryDy=0;entryPerimeter=0;" parent="1" source="U_3eeoUp6OMtoiEWqaUz-1" target="U_3eeoUp6OMtoiEWqaUz-19" edge="1">
          <mxGeometry width="50" height="50" relative="1" as="geometry">
            <mxPoint x="560" y="260" as="sourcePoint"/>
            <mxPoint x="610" y="210" as="targetPoint"/>
          </mxGeometry>
        </mxCell>
        <mxCell id="U_3eeoUp6OMtoiEWqaUz-23" value="&lt;div&gt;AdNovum AG&lt;/div&gt;&lt;div&gt;Silvan Leuenberger&lt;/div&gt;&lt;div&gt;Andrew Gouldwing&lt;/div&gt;&lt;div&gt;Marcel Vinzens&lt;br&gt;&lt;/div&gt;" style="ellipse;whiteSpace=wrap;html=1;" parent="1" vertex="1">
          <mxGeometry x="390" y="90" width="120" height="80" as="geometry"/>
        </mxCell>
        <mxCell id="U_3eeoUp6OMtoiEWqaUz-24" value="" style="endArrow=none;html=1;entryX=0.5;entryY=1;entryDx=0;entryDy=0;exitX=0.5;exitY=0;exitDx=0;exitDy=0;" parent="1" source="U_3eeoUp6OMtoiEWqaUz-1" target="U_3eeoUp6OMtoiEWqaUz-23" edge="1">
          <mxGeometry width="50" height="50" relative="1" as="geometry">
            <mxPoint x="480" y="240" as="sourcePoint"/>
            <mxPoint x="530" y="190" as="targetPoint"/>
          </mxGeometry>
        </mxCell>
        <mxCell id="U_3eeoUp6OMtoiEWqaUz-29" value="&lt;div&gt;Kantonsspital Obwalden&lt;/div&gt;&lt;div&gt;Roland Bl채ttler&lt;br&gt;&lt;/div&gt;" style="ellipse;whiteSpace=wrap;html=1;" parent="1" vertex="1">
          <mxGeometry x="690" y="250" width="120" height="80" as="geometry"/>
        </mxCell>
        <mxCell id="U_3eeoUp6OMtoiEWqaUz-30" value="" style="endArrow=none;html=1;exitX=1;exitY=0.5;exitDx=0;exitDy=0;entryX=0;entryY=0.5;entryDx=0;entryDy=0;" parent="1" source="U_3eeoUp6OMtoiEWqaUz-1" target="U_3eeoUp6OMtoiEWqaUz-29" edge="1">
          <mxGeometry width="50" height="50" relative="1" as="geometry">
            <mxPoint x="640" y="340" as="sourcePoint"/>
            <mxPoint x="690" y="290" as="targetPoint"/>
          </mxGeometry>
        </mxCell>
        <mxCell id="U_3eeoUp6OMtoiEWqaUz-33" value="&lt;div&gt;ILZ OW/NW&lt;/div&gt;&lt;div&gt;Stefan M체ller&lt;br&gt;&lt;/div&gt;" style="ellipse;whiteSpace=wrap;html=1;" parent="1" vertex="1">
          <mxGeometry x="560" y="470" width="120" height="80" as="geometry"/>
        </mxCell>
        <mxCell id="U_3eeoUp6OMtoiEWqaUz-35" value="" style="endArrow=none;html=1;entryX=0.558;entryY=1;entryDx=0;entryDy=0;entryPerimeter=0;exitX=0.5;exitY=0;exitDx=0;exitDy=0;" parent="1" source="U_3eeoUp6OMtoiEWqaUz-33" target="U_3eeoUp6OMtoiEWqaUz-1" edge="1">
          <mxGeometry width="50" height="50" relative="1" as="geometry">
            <mxPoint x="520" y="420" as="sourcePoint"/>
            <mxPoint x="570" y="370" as="targetPoint"/>
          </mxGeometry>
        </mxCell>
        <mxCell id="U_3eeoUp6OMtoiEWqaUz-41" value="&lt;div&gt;Apoveda GmbH&lt;/div&gt;&lt;div&gt;Tobias Geisler&lt;/div&gt;&lt;div&gt;Daniel Meile&lt;br&gt;&lt;/div&gt;" style="ellipse;whiteSpace=wrap;html=1;" parent="1" vertex="1">
          <mxGeometry x="540" y="60" width="120" height="80" as="geometry"/>
        </mxCell>
        <mxCell id="U_3eeoUp6OMtoiEWqaUz-44" value="" style="endArrow=none;html=1;entryX=0;entryY=1;entryDx=0;entryDy=0;" parent="1" source="U_3eeoUp6OMtoiEWqaUz-1" target="U_3eeoUp6OMtoiEWqaUz-41" edge="1">
          <mxGeometry width="50" height="50" relative="1" as="geometry">
            <mxPoint x="620" y="160" as="sourcePoint"/>
            <mxPoint x="670" y="110" as="targetPoint"/>
          </mxGeometry>
        </mxCell>
        <mxCell id="U737juosBFT6chBKeV1L-1" value="&lt;div&gt;Sedimentum AG&lt;/div&gt;&lt;div&gt;Sandro Cilurzo&lt;br&gt;&lt;/div&gt;" style="ellipse;whiteSpace=wrap;html=1;" parent="1" vertex="1">
          <mxGeometry x="400" y="490" width="120" height="80" as="geometry"/>
        </mxCell>
        <mxCell id="U737juosBFT6chBKeV1L-3" value="" style="endArrow=none;html=1;exitX=0.608;exitY=0.013;exitDx=0;exitDy=0;exitPerimeter=0;" parent="1" source="U737juosBFT6chBKeV1L-1" target="U_3eeoUp6OMtoiEWqaUz-1" edge="1">
          <mxGeometry width="50" height="50" relative="1" as="geometry">
            <mxPoint x="530" y="590" as="sourcePoint"/>
            <mxPoint x="580" y="540" as="targetPoint"/>
          </mxGeometry>
        </mxCell>
      </root>
    </mxGraphModel>
  </diagram>
</mxfile>
